<?xml version="1.0" encoding="UTF-8"?><svg id="a" xmlns="http://www.w3.org/2000/svg" viewBox="0 0 298.56 50"><defs><style>.b,.c{fill:#d70f37;}.c{fill-rule:evenodd;}</style></defs><path class="c" d="M79.54,8.91c-1.1-.81-2.12-.6-3.65-.16-.36,.08-.72,.16-1.08,.24-.74-.16-1.66-.69-2.25-1.08-1.27-.86-.51-1.24-.24-2.33,.15-.61,.06-1.38-.08-1.93-.04-.2-.08-.4-.12-.6-.29-.47-1.87-1.25-2.45-1.52-1.23-.58-2.54-1.06-4.09-1.36-3.82-.74-8.23,1.19-9.35,3.45-.35,.7-.64,1.76-.48,2.73,.74,4.55,3.54,4.87,5.78,7.66,2.15,2.68,4.61,5.4,5.86,8.95,2.3,6.53-2.01,12.33-5.82,15.05-1.98,1.41-4.36,2.8-7.26,3.25,.24,.82,.48,1.63,.72,2.45,.58,1.81,.38,3.89,.32,5.82,1.87-.12,3.72-.79,5.26-1.32,8.22-2.86,12.22-8.15,15.01-16.29,1.54-4.49,.79-10.31-1.12-13.84-.72-1.33-1.67-2.43-2.57-3.57-.71-.9-2.2-2.58-3.25-3.05-.07-.08-.13-.16-.2-.24,1.42,.05,2.84,.11,4.25,.16,1.89,.29,4.02-.19,5.38-.52,1.07-.26,1.56-.25,2.09-1-.04-.53-.32-.68-.64-.92Zm-19.98,15.13c-.98-4.36-4.77-6.5-7.83-8.83-.97-.74-1.68-2.07-2.33-3.13-.77-1.27-1.91-3.78-1.52-5.98,.19-1.08,.49-2.11,.68-3.05-4.1-.23-8.77-.95-12.6-.24-8.21,1.52-13.17,6.51-16.73,12.52-1.06,1.79-2.35,3.44-3.29,5.22-.91,1.72-1.41,3.71-2.13,5.5-1.95,4.87-3.9,9.65-8.19,12.4C4.03,39.46,2.35,40.84,0,40.85v9.11c5.58,.01,11.16,.03,16.73,.04-.03-.67-.05-1.34-.08-2.01,0-3.08,.5-5.5,1.52-7.62,2.44-5.06,4.85-7.49,9.51-10.31,.92-.56,1.96-.66,3.01-1.12,1.87-.83,5.35-1.18,7.91-.68,4.06,.79,7.2,2.33,9.79,4.57,.87,.75,1.57,1.72,2.45,2.45v.08c.01-.08,.03-.16,.04-.24,1.21,.55,3.34-.89,4.05-1.36,2.72-1.81,5.62-5.21,4.61-9.71Z"/><g><path d="M96.16,33.15l1.89-4.31c1.66,1.03,4.08,1.66,6.27,1.66s2.82-.46,2.82-1.23c0-2.42-10.62,.33-10.62-6.87,0-3.38,3.12-5.97,8.76-5.97,2.52,0,5.31,.53,7.1,1.53l-1.89,4.28c-1.79-1-3.58-1.33-5.18-1.33-2.12,0-2.89,.6-2.89,1.26,0,2.49,10.59-.2,10.59,6.94,0,3.32-3.05,5.91-8.89,5.91-3.05,0-6.21-.76-7.97-1.86Z"/><path d="M127.46,33.98c-1.1,.7-2.72,1.03-4.38,1.03-4.61,0-7.3-2.26-7.3-6.87v-6.04h-2.62v-4.71h2.62v-4.68h6.31v4.68h4.12v4.71h-4.12v5.97c0,1.33,.76,2.06,1.89,2.06,.7,0,1.39-.2,1.92-.56l1.56,4.41Z"/><path d="M141.07,16.42v5.67c-.56-.07-.96-.1-1.43-.1-2.56,0-4.31,1.29-4.31,4.45v8.26h-6.31V16.72h6.01v2.16c1.29-1.63,3.39-2.46,6.04-2.46Z"/><path d="M141.59,25.68c0-5.41,4.28-9.26,10.16-9.26s10.16,3.85,10.16,9.26-4.21,9.33-10.16,9.33-10.16-3.88-10.16-9.33Zm13.94,0c0-2.72-1.63-4.25-3.78-4.25s-3.78,1.53-3.78,4.25,1.66,4.31,3.78,4.31,3.78-1.56,3.78-4.31Z"/><path d="M183.14,24.42v10.29h-6.31v-9.26c0-2.59-1.13-3.68-2.95-3.68-2.02,0-3.58,1.26-3.58,4.25v8.7h-6.31V16.72h6.01v1.96c1.43-1.49,3.45-2.26,5.71-2.26,4.21,0,7.43,2.42,7.43,8Z"/><path d="M205.53,16.72v14.7c0,6.8-3.85,10.02-10.55,10.02-3.45,0-6.74-.8-8.93-2.36l2.29-4.41c1.49,1.2,3.95,1.92,6.07,1.92,3.39,0,4.81-1.53,4.81-4.35v-.6c-1.23,1.43-3.05,2.12-5.34,2.12-4.78,0-8.83-3.39-8.83-8.7s4.05-8.66,8.83-8.66c2.49,0,4.41,.8,5.64,2.49v-2.19h6.01Zm-6.24,8.36c0-2.19-1.66-3.65-3.92-3.65s-3.95,1.46-3.95,3.65,1.69,3.68,3.95,3.68,3.92-1.49,3.92-3.68Z"/><path d="M207.75,32.62l2.16-4.84c2.06,1.36,4.98,2.29,7.67,2.29s3.78-.76,3.78-1.89c0-3.68-13.21-1-13.21-9.62,0-4.15,3.39-7.53,10.29-7.53,3.02,0,6.14,.7,8.43,2.02l-2.02,4.88c-2.22-1.19-4.41-1.79-6.44-1.79-2.75,0-3.75,.93-3.75,2.09,0,3.55,13.18,.9,13.18,9.46,0,4.05-3.38,7.5-10.29,7.5-3.82,0-7.6-1.03-9.79-2.56Z"/><path d="M259.12,16.72l-6.41,17.99h-6.11l-3.39-9.79-3.52,9.79h-6.11l-6.41-17.99h5.97l3.68,10.89,3.82-10.89h5.38l3.72,10.99,3.82-10.99h5.54Z"/><path d="M276.95,24.72v9.99h-5.87v-2.32c-.9,1.73-2.69,2.62-5.31,2.62-4.31,0-6.7-2.42-6.7-5.54,0-3.32,2.42-5.38,8-5.38h3.58c-.1-1.83-1.33-2.85-3.82-2.85-1.73,0-3.65,.6-4.88,1.56l-2.12-4.28c2.06-1.36,5.11-2.09,7.93-2.09,5.84,0,9.19,2.59,9.19,8.3Zm-6.31,4.21v-1.56h-2.72c-2.02,0-2.75,.73-2.75,1.83s.86,1.83,2.36,1.83c1.39,0,2.62-.66,3.12-2.09Z"/><path d="M299.18,24.42v10.29h-6.31v-9.26c0-2.59-1.13-3.68-2.95-3.68-2.02,0-3.58,1.26-3.58,4.25v8.7h-6.31V16.72h6.01v1.96c1.43-1.49,3.45-2.26,5.71-2.26,4.21,0,7.43,2.42,7.43,8Z"/></g></svg>